<svg width="20" height="16" viewBox="0 0 20 16" fill="none" xmlns="http://www.w3.org/2000/svg">
<g opacity="0.23" clip-path="url(#clip0_57_1861)">
<path d="M13.3035 8.00018C12.7753 8.00018 12.2785 7.71893 12.0097 7.26893L10.0003 3.93768L7.9941 7.26893C7.72222 7.72205 7.22535 8.0033 6.69722 8.0033C6.5566 8.0033 6.41597 7.98455 6.2816 7.94393L2.00035 6.71893V12.2814C2.00035 12.7408 2.31285 13.1408 2.7566 13.2502L9.51285 14.9408C9.8316 15.0189 10.166 15.0189 10.4816 14.9408L17.2441 13.2502C17.6878 13.1377 18.0003 12.7377 18.0003 12.2814V6.71893L13.7191 7.9408C13.5847 7.98143 13.4441 8.00018 13.3035 8.00018ZM19.9472 4.49393L18.3378 1.28143C18.241 1.08768 18.0316 0.975179 17.816 1.0033L10.0003 2.00018L12.866 6.7533C12.9847 6.95018 13.2222 7.04393 13.4441 6.98143L19.6285 5.2158C19.9378 5.12518 20.0878 4.78143 19.9472 4.49393ZM1.66285 1.28143L0.0534711 4.49393C-0.0902789 4.78143 0.0628461 5.12518 0.369096 5.21268L6.55347 6.9783C6.77535 7.0408 7.01285 6.94705 7.1316 6.75018L10.0003 2.00018L2.1816 1.0033C1.96597 0.978304 1.75972 1.08768 1.66285 1.28143Z" fill="#3F4E65"/>
</g>
<defs>
<clipPath id="clip0_57_1861">
<rect width="20" height="16" fill="white"/>
</clipPath>
</defs>
</svg>
